<?xml version="1.0" encoding="UTF-8" standalone="no"?>
<!-- Created with Sodipodi ("http://www.sodipodi.com/") -->

<svg
   xml:space="preserve"
   width="112mm"
   height="132mm"
   style="shape-rendering:geometricPrecision; text-rendering:geometricPrecision; image-rendering:optimizeQuality; fill-rule:evenodd"
   viewBox="0 0 8268 11692"
   id="svg2"
   sodipodi:version="0.34"
   inkscape:version="1.3 (0e150ed6c4, 2023-07-21)"
   sodipodi:docname="Bass_clef.svg"
   version="1.1"
   xmlns:inkscape="http://www.inkscape.org/namespaces/inkscape"
   xmlns:sodipodi="http://sodipodi.sourceforge.net/DTD/sodipodi-0.dtd"
   xmlns="http://www.w3.org/2000/svg"
   xmlns:svg="http://www.w3.org/2000/svg"
   xmlns:rdf="http://www.w3.org/1999/02/22-rdf-syntax-ns#"
   xmlns:cc="http://creativecommons.org/ns#"
   xmlns:dc="http://purl.org/dc/elements/1.1/"><metadata
     id="metadata22"><rdf:RDF><cc:Work
         rdf:about=""><dc:format>image/svg+xml</dc:format><dc:type
           rdf:resource="http://purl.org/dc/dcmitype/StillImage" /></cc:Work></rdf:RDF></metadata><sodipodi:namedview
     inkscape:window-height="1000"
     inkscape:window-width="958"
     inkscape:pageshadow="2"
     inkscape:pageopacity="0.0"
     borderopacity="1.0"
     bordercolor="#666666"
     pagecolor="#ffffff"
     id="base"
     inkscape:zoom="1.4215655"
     inkscape:cx="115.7175"
     inkscape:cy="260.97989"
     inkscape:window-x="953"
     inkscape:window-y="0"
     inkscape:current-layer="Layer 1"
     inkscape:showpageshadow="2"
     inkscape:pagecheckerboard="0"
     inkscape:deskcolor="#d1d1d1"
     inkscape:document-units="mm"
     showgrid="false"
     inkscape:window-maximized="0" /><defs
     id="defs4"><style
       type="text/css"
       id="style6">&#10;   &#10;    .str1 {stroke:#131516;stroke-width:3}&#10;    .str0 {stroke:#131516;stroke-width:42}&#10;    .fil0 {fill:none}&#10;    .fil1 {fill:#131516}&#10;   &#10;  </style></defs><g
     id="Layer 1"
     transform="matrix(4.588483,0,0,4.575039,-4898.431,-28736.72)"><path
       class="fil1 str1"
       d="m 1034.7,8245 c 158,-107 276,-188 352,-244 76,-55 156,-124 238,-206 82,-82 151,-175 207,-278 44,-76 82,-164 113,-264 31,-99 47,-195 50,-286 0,-85 -11,-166 -34,-242 -22,-77 -60,-140 -114,-191 -54,-50 -124,-75 -211,-75 -84,0 -163,17 -237,50 -73,34 -125,88 -154,164 0,7 -4,16 -10,29 2,16 10,28 25,37 15,9 28,13 40,13 6,0 23,-3 49,-9 27,-6 49,-10 67,-10 53,0 100,19 143,56 42,37 63,82 63,135 0,38 -11,74 -32,107 -21,33 -50,60 -87,79 -37,20 -78,29 -122,29 -80,0 -148,-24 -204,-73 -55,-50 -83,-113 -83,-192 0,-101 31,-188 92,-262 62,-74 140,-129 236,-166 95,-38 191,-56 289,-56 107,0 209,27 304,82 96,54 171,129 227,222 56,94 85,194 85,302 0,192 -64,370 -192,535 -128,165 -286,308 -475,430 -126,83 -330,195 -611,336 z m 1389,-1547 c 0,-36 13,-66 39,-90 25,-25 56,-37 93,-37 32,0 62,14 89,41 27,26 40,57 40,91 0,36 -14,67 -40,92 -28,24 -59,36 -94,36 -37,0 -67,-12 -91,-39 -24,-26 -36,-57 -36,-94 z m 0,524 c 0,-36 13,-67 37,-91 25,-25 56,-37 95,-37 32,0 61,13 89,40 26,27 40,56 40,88 0,39 -13,70 -38,95 -26,25 -56,38 -91,38 -39,0 -70,-13 -95,-37 -24,-24 -37,-56 -37,-96 z"
       id="path19"
       style="fill:#131516;stroke:#131516;stroke-width:3" /></g></svg>
