<?xml version="1.0" encoding="UTF-8" standalone="no"?>
<!-- Created with Inkscape (http://www.inkscape.org/) -->

<svg
   xmlns:dc="http://purl.org/dc/elements/1.1/"
   xmlns:cc="http://creativecommons.org/ns#"
   xmlns:rdf="http://www.w3.org/1999/02/22-rdf-syntax-ns#"
   xmlns:svg="http://www.w3.org/2000/svg"
   xmlns="http://www.w3.org/2000/svg"
   xmlns:sodipodi="http://sodipodi.sourceforge.net/DTD/sodipodi-0.dtd"
   xmlns:inkscape="http://www.inkscape.org/namespaces/inkscape"
   width="120"
   height="140"
   id="svg3787"
   version="1.1"
   inkscape:version="0.48.4 r9939"
   sodipodi:docname="facebook2.svg">
  <defs
     id="defs3789" />
  <sodipodi:namedview
     id="base"
     pagecolor="#ffffff"
     bordercolor="#666666"
     borderopacity="1.0"
     inkscape:pageopacity="0.0"
     inkscape:pageshadow="2"
     inkscape:zoom="4.50877"
     inkscape:cx="70.154723"
     inkscape:cy="53.911159"
     inkscape:document-units="px"
     inkscape:current-layer="layer1"
     showgrid="false"
     fit-margin-top="0"
     fit-margin-left="0"
     fit-margin-right="0"
     fit-margin-bottom="0"
     inkscape:window-width="1024"
     inkscape:window-height="721"
     inkscape:window-x="-4"
     inkscape:window-y="-4"
     inkscape:window-maximized="1" />
  <metadata
     id="metadata3792">
    <rdf:RDF>
      <cc:Work
         rdf:about="">
        <dc:format>image/svg+xml</dc:format>
        <dc:type
           rdf:resource="http://purl.org/dc/dcmitype/StillImage" />
        <dc:title></dc:title>
      </cc:Work>
    </rdf:RDF>
  </metadata>
  <g
     inkscape:label="Layer 1"
     inkscape:groupmode="layer"
     id="layer1"
     transform="translate(-55.998853,-505.33939)">
    <path
       sodipodi:type="star"
       style="fill:#1a1817;fill-opacity:1;stroke:none"
       id="path3795"
       sodipodi:sides="5"
       sodipodi:cx="282.85715"
       sodipodi:cy="452.36218"
       sodipodi:r1="238.53293"
       sodipodi:r2="192.97719"
       sodipodi:arg1="-1.5707963"
       sodipodi:arg2="-0.9424778"
       inkscape:flatsided="true"
       inkscape:rounded="0"
       inkscape:randomized="0"
       d="M 282.85715,213.82925 509.71545,378.65146 423.06328,645.33938 142.651,645.33937 55.998853,378.65145 z"
       inkscape:transform-center-y="6.0243416"
       transform="matrix(0.26448228,0,0,-0.26448228,41.188149,701.89344)" />
    <path
       id="path162"
       style="fill:#ffffff;fill-opacity:1;fill-rule:nonzero;stroke:none"
       d="m 115.87888,549.31767 c -18.072507,0 -32.722507,14.64875 -32.722507,32.7275 0,14.45 9.3725,26.71375 22.377497,31.045 1.63875,0.2975 2.235,-0.71625 2.235,-1.58 0,-0.77625 -0.025,-2.835 -0.045,-5.56625 -9.101247,1.9775 -11.019997,-4.385 -11.019997,-4.385 -1.49,-3.77875 -3.63625,-4.7825 -3.63625,-4.7825 -2.96875,-2.03375 0.2275,-1.9925 0.2275,-1.9925 3.28625,0.2325 5.01376,3.37125 5.01376,3.37125 2.916247,5.0025 7.657487,3.5525 9.523737,2.7175 0.29376,-2.11625 1.13875,-3.5525 2.07375,-4.3725 -7.26625,-0.8225 -14.904987,-3.6375 -14.904987,-16.17375 0,-3.5675 1.27749,-6.4925 3.36624,-8.7775 -0.33499,-0.83 -1.45625,-4.155 0.323757,-8.66125 0,0 2.74374,-0.88 8.9975,3.35625 2.60874,-0.7275 5.41249,-1.09125 8.19124,-1.10375 2.78001,0.0125 5.58001,0.37625 8.19,1.10375 6.25126,-4.23625 8.99626,-3.35625 8.99626,-3.35625 1.78125,4.50625 0.65999,7.83125 0.32125,8.66125 2.09375,2.285 3.36499,5.21 3.36499,8.7775 0,12.5725 -7.65375,15.33875 -14.94374,16.15 1.17374,1.01 2.22375,3.0025 2.22375,6.05625 0,4.375 -0.04,7.90375 -0.04,8.9775 0,0.87375 0.59125,1.89 2.25126,1.57 12.98874,-4.33125 22.35625,-16.59 22.35625,-31.035 0,-18.07875 -14.64626,-32.7275 -32.72125,-32.7275"
       inkscape:connector-curvature="0" />
  </g>
</svg>
