<?xml version="1.0" encoding="UTF-8" standalone="no"?>
<!-- Created with Inkscape (http://www.inkscape.org/) -->

<svg
   xmlns:dc="http://purl.org/dc/elements/1.1/"
   xmlns:cc="http://creativecommons.org/ns#"
   xmlns:rdf="http://www.w3.org/1999/02/22-rdf-syntax-ns#"
   xmlns:svg="http://www.w3.org/2000/svg"
   xmlns="http://www.w3.org/2000/svg"
   xmlns:sodipodi="http://sodipodi.sourceforge.net/DTD/sodipodi-0.dtd"
   xmlns:inkscape="http://www.inkscape.org/namespaces/inkscape"
   width="45"
   height="62.797546"
   id="svg3787"
   version="1.1"
   inkscape:version="0.48.4 r9939"
   sodipodi:docname="googleplus.svg">
  <defs
     id="defs3789" />
  <sodipodi:namedview
     id="base"
     pagecolor="#ffffff"
     bordercolor="#666666"
     borderopacity="1.0"
     inkscape:pageopacity="0.0"
     inkscape:pageshadow="2"
     inkscape:zoom="4.50877"
     inkscape:cx="53.346905"
     inkscape:cy="23.759406"
     inkscape:document-units="px"
     inkscape:current-layer="layer1"
     showgrid="false"
     fit-margin-top="0"
     fit-margin-left="0"
     fit-margin-right="0"
     fit-margin-bottom="20"
     inkscape:window-width="1024"
     inkscape:window-height="721"
     inkscape:window-x="-4"
     inkscape:window-y="-4"
     inkscape:window-maximized="1" />
  <metadata
     id="metadata3792">
    <rdf:RDF>
      <cc:Work
         rdf:about="">
        <dc:format>image/svg+xml</dc:format>
        <dc:type
           rdf:resource="http://purl.org/dc/dcmitype/StillImage" />
        <dc:title />
      </cc:Work>
    </rdf:RDF>
  </metadata>
  <g
     inkscape:label="Layer 1"
     inkscape:groupmode="layer"
     id="layer1"
     transform="translate(-55.998853,-576.7753)">
    <path
       sodipodi:type="star"
       style="fill:#ce2a2f;fill-opacity:1;stroke:none"
       id="path3795"
       sodipodi:sides="5"
       sodipodi:cx="282.85715"
       sodipodi:cy="452.36218"
       sodipodi:r1="238.53293"
       sodipodi:r2="192.97719"
       sodipodi:arg1="-1.5707963"
       sodipodi:arg2="-0.9424778"
       inkscape:flatsided="true"
       inkscape:rounded="0"
       inkscape:randomized="0"
       d="M 282.85715,213.82925 509.71545,378.65146 423.06328,645.33938 142.651,645.33937 55.998853,378.65145 z"
       inkscape:transform-center-y="-2.2591244"
       transform="matrix(0.09918086,0,0,0.09918086,50.444839,555.56753)" />
    <path
       inkscape:connector-curvature="0"
       id="path36"
       style="fill:#ffffff;fill-opacity:1;fill-rule:nonzero;stroke:none"
       d="m 78.588155,589.63156 c 0.221719,0.13688 0.469687,0.33703 0.745781,0.60047 0.264375,0.27469 0.524063,0.61359 0.778125,1.01297 0.243281,0.37734 0.458906,0.82265 0.647344,1.33828 0.154687,0.51469 0.232031,1.11609 0.232031,1.80234 -0.02014,1.2586 -0.298594,2.26547 -0.834375,3.0211 -0.261562,0.36609 -0.539062,0.70359 -0.8325,1.0125 -0.325781,0.30797 -0.670781,0.6239 -1.036875,0.94359 -0.210469,0.2175 -0.403594,0.4636 -0.581719,0.73875 -0.209531,0.28594 -0.314531,0.61688 -0.314531,0.99469 0,0.36843 0.107813,0.67031 0.3225,0.91031 0.182344,0.22922 0.36,0.42985 0.5325,0.60094 l 1.193906,0.97828 c 0.741563,0.60797 1.392188,1.27453 1.950938,2.00718 0.526406,0.74485 0.800625,1.71657 0.824062,2.91751 0,1.70531 -0.75375,3.21469 -2.259375,4.53281 -1.559531,1.36172 -3.81375,2.06438 -6.757968,2.11078 -2.464687,-0.0229 -4.304531,-0.54844 -5.520469,-1.575 -1.225312,-0.96047 -1.839375,-2.10797 -1.839375,-3.44438 0,-0.65015 0.198282,-1.37672 0.599532,-2.1764 0.385781,-0.79828 1.087031,-1.50094 2.102343,-2.10609 1.138594,-0.64969 2.335782,-1.08516 3.590626,-1.30219 1.242655,-0.18188 2.273436,-0.28547 3.094686,-0.30797 -0.254062,-0.33422 -0.48,-0.69047 -0.678281,-1.07016 -0.232031,-0.36797 -0.346875,-0.81187 -0.346875,-1.32797 0,-0.31078 0.04359,-0.57093 0.131719,-0.77718 0.07734,-0.21938 0.149531,-0.41907 0.215156,-0.60376 -0.399375,0.045 -0.777187,0.0684 -1.130156,0.0684 -1.874062,-0.0234 -3.301406,-0.61312 -4.283437,-1.76765 -1.029375,-1.07672 -1.543594,-2.32969 -1.543594,-3.75891 0,-1.72875 0.7275,-3.29531 2.185782,-4.70344 0.999843,-0.82265 2.039062,-1.35937 3.117186,-1.61297 1.067344,-0.21749 2.068125,-0.32578 3.000938,-0.32578 l 7.036406,0 -2.173125,1.26891 -2.168906,0 z m 1.358437,20.25422 c 0,-0.89344 -0.291093,-1.67062 -0.872812,-2.33391 -0.616875,-0.62953 -1.579688,-1.40156 -2.890781,-2.31844 -0.225,-0.023 -0.487969,-0.0342 -0.790313,-0.0342 -0.178594,-0.0216 -0.638906,0 -1.378125,0.0684 -0.7275,0.1036 -1.473281,0.26907 -2.235468,0.49829 -0.179531,0.0689 -0.430781,0.17203 -0.755156,0.30937 -0.324844,0.1486 -0.655313,0.36047 -0.992344,0.63516 -0.325312,0.28594 -0.599062,0.64031 -0.822656,1.06453 -0.25875,0.44672 -0.38625,0.98484 -0.38625,1.61391 0,1.23609 0.55875,2.25468 1.678594,3.05531 1.065468,0.80109 2.521405,1.21266 4.370155,1.23656 1.658438,-0.0239 2.925,-0.39 3.797344,-1.09922 0.852187,-0.69891 1.277812,-1.59656 1.277812,-2.69578 z m -4.905468,-10.31391 c 0.926718,-0.0347 1.698281,-0.36843 2.315625,-0.9989 0.298125,-0.44672 0.489843,-0.90516 0.574218,-1.37579 0.05109,-0.47062 0.07734,-0.86484 0.07734,-1.18687 0,-1.38656 -0.355312,-2.78625 -1.064531,-4.19531 -0.33375,-0.67641 -0.771563,-1.22719 -1.314375,-1.65141 -0.555469,-0.39937 -1.1925,-0.61266 -1.912969,-0.63562 -0.953906,0.023 -1.746093,0.40734 -2.378905,1.15265 -0.532969,0.77953 -0.787969,1.65094 -0.763594,2.61422 0,1.27219 0.37125,2.59547 1.116094,3.97219 0.361406,0.64172 0.824999,1.18593 1.396405,1.63312 0.57,0.44813 1.221563,0.67172 1.954688,0.67172" />
    <path
       inkscape:connector-curvature="0"
       id="path38"
       style="fill:#ffffff;fill-opacity:1;fill-rule:nonzero;stroke:none"
       d="m 92.463155,592.20594 -3.691875,0 0,-3.69329 -1.78875,0 0,3.69329 -3.691406,0 0,1.78875 3.691406,0 0,3.6914 1.78875,0 0,-3.6914 3.691875,0 0,-1.78876" />
  </g>
</svg>
