<?xml version="1.0" encoding="UTF-8" standalone="no"?>
<!-- Created with Inkscape (http://www.inkscape.org/) -->

<svg
   xmlns:dc="http://purl.org/dc/elements/1.1/"
   xmlns:cc="http://creativecommons.org/ns#"
   xmlns:rdf="http://www.w3.org/1999/02/22-rdf-syntax-ns#"
   xmlns:svg="http://www.w3.org/2000/svg"
   xmlns="http://www.w3.org/2000/svg"
   xmlns:sodipodi="http://sodipodi.sourceforge.net/DTD/sodipodi-0.dtd"
   xmlns:inkscape="http://www.inkscape.org/namespaces/inkscape"
   width="120"
   height="191"
   id="svg3787"
   version="1.1"
   inkscape:version="0.48.4 r9939"
   sodipodi:docname="vk2.svg">
  <defs
     id="defs3789" />
  <sodipodi:namedview
     id="base"
     pagecolor="#ffffff"
     bordercolor="#666666"
     borderopacity="1.0"
     inkscape:pageopacity="0.0"
     inkscape:pageshadow="2"
     inkscape:zoom="4.50877"
     inkscape:cx="53.346906"
     inkscape:cy="80.525957"
     inkscape:document-units="px"
     inkscape:current-layer="layer1"
     showgrid="false"
     fit-margin-top="0"
     fit-margin-left="0"
     fit-margin-right="0"
     fit-margin-bottom="0"
     inkscape:window-width="1024"
     inkscape:window-height="721"
     inkscape:window-x="-4"
     inkscape:window-y="-4"
     inkscape:window-maximized="1" />
  <metadata
     id="metadata3792">
    <rdf:RDF>
      <cc:Work
         rdf:about="">
        <dc:format>image/svg+xml</dc:format>
        <dc:type
           rdf:resource="http://purl.org/dc/dcmitype/StillImage" />
        <dc:title></dc:title>
      </cc:Work>
    </rdf:RDF>
  </metadata>
  <g
     inkscape:label="Layer 1"
     inkscape:groupmode="layer"
     id="layer1"
     transform="translate(-55.998853,-505.33939)">
    <path
       sodipodi:type="star"
       style="fill:#ce2a2f;fill-opacity:1;stroke:none"
       id="path3795"
       sodipodi:sides="5"
       sodipodi:cx="282.85715"
       sodipodi:cy="452.36218"
       sodipodi:r1="238.53293"
       sodipodi:r2="192.97719"
       sodipodi:arg1="-1.5707963"
       sodipodi:arg2="-0.9424778"
       inkscape:flatsided="true"
       inkscape:rounded="0"
       inkscape:randomized="0"
       d="M 282.85715,213.82925 509.71545,378.65146 423.06328,645.33938 142.651,645.33937 55.998853,378.65145 z"
       inkscape:transform-center-y="-6.0243407"
       transform="matrix(0.26448228,0,0,0.26448228,41.188149,448.89201)" />
    <path
       inkscape:connector-curvature="0"
       id="path36"
       style="fill:#ffffff;fill-opacity:1;fill-rule:nonzero;stroke:none"
       d="m 116.23699,539.72943 c 0.59125,0.365 1.2525,0.89875 1.98875,1.60125 0.705,0.7325 1.3975,1.63624 2.075,2.70125 0.64875,1.00625 1.22375,2.19375 1.72625,3.56875 0.4125,1.3725 0.61875,2.97624 0.61875,4.80625 -0.0537,3.35625 -0.79625,6.04125 -2.225,8.05625 -0.6975,0.97625 -1.4375,1.87624 -2.22,2.7 -0.86875,0.82125 -1.78875,1.66374 -2.765,2.51625 -0.56125,0.58 -1.07625,1.23625 -1.55125,1.96999 -0.55875,0.76251 -0.83875,1.64501 -0.83875,2.65251 0,0.98249 0.2875,1.78749 0.86,2.4275 0.48625,0.61125 0.96,1.14625 1.42,1.60249 l 3.18375,2.60875 c 1.9775,1.62126 3.7125,3.39875 5.2025,5.3525 1.40375,1.98625 2.135,4.5775 2.1975,7.78001 0,4.54749 -2.01,8.5725 -6.025,12.0875 -4.15875,3.63125 -10.17,5.505 -18.02125,5.62874 -6.572498,-0.0612 -11.478748,-1.4625 -14.721248,-4.2 -3.2675,-2.56124 -4.905,-5.62124 -4.905,-9.185 0,-1.73375 0.52875,-3.67125 1.59875,-5.80374 1.02875,-2.12876 2.89875,-4.0025 5.60625,-5.61625 3.03625,-1.7325 6.22875,-2.89375 9.575,-3.47251 3.313748,-0.485 6.062498,-0.76125 8.252498,-0.82125 -0.6775,-0.89124 -1.28,-1.84125 -1.80875,-2.85375 -0.61875,-0.98125 -0.925,-2.16499 -0.925,-3.54125 0,-0.82875 0.11625,-1.52249 0.35125,-2.07249 0.20625,-0.585 0.39875,-1.11751 0.57375,-1.61001 -1.065,0.12 -2.0725,0.1825 -3.01375,0.1825 -4.997498,-0.0625 -8.803748,-1.63499 -11.422498,-4.71375 -2.745,-2.87124 -4.11625,-6.21249 -4.11625,-10.02375 0,-4.60999 1.94,-8.78749 5.82875,-12.54249 2.66625,-2.19375 5.4375,-3.625 8.312498,-4.30126 2.84625,-0.57999 5.515,-0.86874 8.0025,-0.86874 l 18.76375,0 -5.795,3.38375 -5.78375,0 z m 3.6225,54.01124 c 0,-2.3825 -0.77625,-4.45499 -2.3275,-6.22375 -1.645,-1.67874 -4.2125,-3.7375 -7.70875,-6.1825 -0.6,-0.0612 -1.30125,-0.0913 -2.1075,-0.0913 -0.47625,-0.0575 -1.70375,0 -3.675,0.1825 -1.94,0.27625 -3.92875,0.71751 -5.961248,1.32876 -0.47875,0.18374 -1.14875,0.45875 -2.01375,0.82499 -0.86625,0.39626 -1.7475,0.96126 -2.64625,1.69376 -0.8675,0.7625 -1.5975,1.70749 -2.19375,2.83875 -0.69,1.19124 -1.03,2.62624 -1.03,4.30375 0,3.29624 1.49,6.01249 4.47625,8.1475 2.84125,2.13624 6.723748,3.23375 11.653748,3.29749 4.4225,-0.0637 7.8,-1.04 10.12625,-2.93124 2.2725,-1.86376 3.4075,-4.2575 3.4075,-7.18876 z m -13.08125,-27.50374 c 2.47125,-0.0925 4.52875,-0.9825 6.175,-2.66375 0.795,-1.19125 1.30625,-2.41376 1.53125,-3.66876 0.13625,-1.255 0.20625,-2.30624 0.20625,-3.16499 0,-3.6975 -0.9475,-7.43 -2.83875,-11.1875 -0.89,-1.80376 -2.0575,-3.27251 -3.505,-4.40375 -1.48125,-1.065 -3.18,-1.63376 -5.10125,-1.695 -2.54375,0.0612 -4.656248,1.08625 -6.343748,3.07374 -1.42125,2.07875 -2.10125,4.40251 -2.03625,6.97125 0,3.39251 0.99,6.92126 2.97625,10.59251 0.96375,1.71125 2.199998,3.16249 3.723748,4.35499 1.52,1.19501 3.2575,1.79126 5.2125,1.79126" />
    <path
       inkscape:connector-curvature="0"
       id="path38"
       style="fill:#ffffff;fill-opacity:1;fill-rule:nonzero;stroke:none"
       d="m 153.23699,546.59443 -9.845,0 0,-9.84876 -4.77,0 0,9.84876 -9.84375,0 0,4.77 9.84375,0 0,9.84375 4.77,0 0,-9.84375 9.845,0 0,-4.77001" />
  </g>
</svg>
