<svg xmlns:svg="http://www.w3.org/2000/svg" xmlns="http://www.w3.org/2000/svg" version="1" width="371.6" height="167.4"><style>.s0{fill:#fff;stroke-width:6.9;stroke:#fff;}.s1{fill:#fff;}</style><g transform="matrix(0.46946538,0,0,0.2061536,-1.9792851,-1.0408078)" style="fill:#fff;stroke:#fff"><path d="m4.2 395.8 791.6 0M4.2 635.8l791.6 0M4.2 515.8l791.6 0M4.2 275.8l791.6 0M4.2 155.8l791.6 0" class="s0"/></g><path d="m51 92.4c-2.6 0.5-5 1.9-7.2 4.2-2.3 2.3-3.5 4.9-3.7 7.8-0.1 1.8 0.4 3.9 1.4 6.2 1 2.3 2.8 4 5 5.2 0.8 0.2 1.1 0.7 1.1 1.2 0 0.2-0.3 0.4-1 0.5-3.7-1.2-6.7-3.4-8.8-6.6-2.2-3.2-3.2-6.8-3-10.7 0.4-4.2 2-8.1 4.7-11.6 2.7-3.5 6.1-5.9 10.1-7.1l-1.8-14.8c-6.7 4.8-12.3 10-16.7 15.5-4.4 5.5-6.9 11.5-7.5 18.3-0.1 3 0.3 6 1.3 8.9 1 2.9 2.5 5.6 4.7 8.1 4.3 5 10.3 7.8 17.6 8.6 2.5 0 5.3-0.3 8.2-0.8L51 92.4Zm3-0.2 4.3 32.2c6.5-2.1 10.1-7.5 10.7-16-0.2-2.9-0.8-5.5-2.1-7.9-1.2-2.4-2.9-4.3-5.1-5.8-2.2-1.5-4.8-2.3-7.8-2.5zm-5.5-43.5c1.4-0.7 3.1-2.1 4.9-4 1.8-1.9 3.6-4.1 5.4-6.6 1.8-2.6 3.3-5.2 4.4-7.9 1.1-2.7 1.8-5.2 1.9-7.6 0.1-1 0.1-2.1-0.1-3-0.1-1.5-0.4-2.7-1.2-3.5-0.7-0.8-1.7-1.3-2.9-1.4-2.5-0.2-4.8 1.2-7 4.1-1.7 2.5-3.2 5.6-4.4 9.1-1.2 3.5-2 7-2.3 10.6-0.1 4.1 0.4 7.5 1.2 10.2zm-2.8 2.2c-1.4-6.8-2-13.7-1.7-20.6 0.3-4.5 1.1-8.6 2.2-12.4 1.1-3.8 2.5-7.1 4.3-9.9 1.7-2.8 3.7-4.8 5.7-6.2 1.9-1.2 3.2-1.8 3.9-1.8 0.5 0 1 0.3 1.4 0.7 0.4 0.4 0.9 1.1 1.5 1.9 4.4 7.3 6.3 15.9 5.7 25.7-0.3 4.7-1.3 9.2-2.8 13.6-1.5 4.4-3.6 8.6-6.2 12.4-2.7 3.9-5.7 7.2-9.2 10l2.2 16.5c1.8-0.1 3.1-0.2 3.8-0.1 3.1 0.2 5.9 1.1 8.4 2.6 2.5 1.5 4.6 3.4 6.3 5.8 1.7 2.4 2.9 5 3.7 8 0.8 3 1.1 6 0.9 9.1-0.3 4.9-1.9 9.2-4.8 13.1-2.8 3.8-6.9 6.5-12.2 8 0.2 2 0.6 5 1.2 8.8 0.6 3.9 1 6.9 1.2 9.2 0.3 2.3 0.3 4.4 0.1 6.5-0.2 3.3-1.2 6.1-3 8.5-1.8 2.4-4.1 4.3-6.9 5.5-2.8 1.2-5.8 1.7-9 1.5-4.5-0.3-8.4-1.9-11.6-4.6-3.2-2.8-4.8-6.3-4.7-10.7 0.3-1.9 0.8-3.7 1.8-5.4 0.9-1.7 2.2-3 3.7-4 1.5-1 3.2-1.5 5.2-1.5 1.6 0.1 3.1 0.7 4.5 1.6 1.3 1 2.4 2.3 3.2 3.9 0.7 1.6 1.1 3.3 0.9 5.1-0.2 2.4-1.1 4.4-2.9 6-1.8 1.6-3.9 2.3-6.5 2.1l-1-0.1c1.4 2.6 4 4 7.7 4.3 1.9 0.1 3.8-0.2 5.7-0.8 2-0.6 3.7-1.6 5.1-2.8 1.5-1.2 2.5-2.6 2.9-4 0.8-1.6 1.3-4 1.5-6.9 0.1-2 0.1-4-0.2-6-0.2-2-0.6-4.6-1.2-7.9-0.6-3.2-1-5.7-1.2-7.5-2.5 0.4-5.1 0.6-7.8 0.4-4.5-0.3-8.7-1.5-12.6-3.6-3.9-2.1-7.2-4.9-10.1-8.4-2.8-3.5-4.9-7.4-6.3-11.7-1.4-4.3-1.9-8.7-1.7-13.2 0.5-4.2 1.5-8.2 3.3-11.9 1.8-3.7 3.9-7.2 6.5-10.4 2.6-3.2 5.2-6.1 8-8.7 2.8-2.5 6.3-5.8 10.9-9.8z" fill="#fff"/><path d="m151.7 46.2 2.9 0c0 12.7 6.8 18.4 8.8 20.4 10.5 11.4 23.7 22.4 6.8 51.7l-1.4 0.1c17.9-33.3-6.2-46.4-14.2-46.6l0 54.5c0 8.6-10.2 15.9-19 15.9-5.6 0-9.8-3.4-9.8-8.1 0-7.7 10.3-15.7 18.4-15.7 6.3 0 7.5 2.1 7.5 2.1zM238.7 9.1l2.9 0c0 12.7 6.8 18.4 8.8 20.4 10.5 11.4 23.7 22.4 6.8 51.7l-1.4 0.1c17.9-33.3-6.2-46.4-14.2-46.6l0 54.5c0 8.6-10.2 15.9-19 15.9-5.6 0-9.8-3.4-9.8-8.1 0-7.7 10.3-15.7 18.4-15.7 6.3 0 7.5 2.1 7.5 2.1zM320 33.4l2.9 0c0 12.7 6.8 18.4 8.8 20.4 10.5 11.4 23.7 22.4 6.8 51.7l-1.4 0.1C355 72.3 330.9 59.2 322.9 59l0 54.5c0 8.6-10.2 15.9-19 15.9-5.6 0-9.8-3.4-9.8-8.1 0-7.7 10.3-15.7 18.4-15.7 6.3 0 7.5 2.1 7.5 2.1z" fill="#fff"/></svg>