<?xml version="1.0" encoding="UTF-8" standalone="no"?>
<!-- Created with Inkscape (http://www.inkscape.org/) -->

<svg
   xmlns:dc="http://purl.org/dc/elements/1.1/"
   xmlns:cc="http://creativecommons.org/ns#"
   xmlns:rdf="http://www.w3.org/1999/02/22-rdf-syntax-ns#"
   xmlns:svg="http://www.w3.org/2000/svg"
   xmlns="http://www.w3.org/2000/svg"
   xmlns:sodipodi="http://sodipodi.sourceforge.net/DTD/sodipodi-0.dtd"
   xmlns:inkscape="http://www.inkscape.org/namespaces/inkscape"
   width="45"
   height="61.797546"
   id="svg3787"
   version="1.1"
   inkscape:version="0.48.4 r9939"
   sodipodi:docname="skype.svg">
  <defs
     id="defs3789" />
  <sodipodi:namedview
     id="base"
     pagecolor="#ffffff"
     bordercolor="#666666"
     borderopacity="1.0"
     inkscape:pageopacity="0.0"
     inkscape:pageshadow="2"
     inkscape:zoom="4.50877"
     inkscape:cx="56.848532"
     inkscape:cy="31.631004"
     inkscape:document-units="px"
     inkscape:current-layer="layer1"
     showgrid="false"
     fit-margin-top="0"
     fit-margin-left="0"
     fit-margin-right="0"
     fit-margin-bottom="19"
     inkscape:window-width="1024"
     inkscape:window-height="721"
     inkscape:window-x="-4"
     inkscape:window-y="-4"
     inkscape:window-maximized="1" />
  <metadata
     id="metadata3792">
    <rdf:RDF>
      <cc:Work
         rdf:about="">
        <dc:format>image/svg+xml</dc:format>
        <dc:type
           rdf:resource="http://purl.org/dc/dcmitype/StillImage" />
        <dc:title />
      </cc:Work>
    </rdf:RDF>
  </metadata>
  <g
     inkscape:label="Layer 1"
     inkscape:groupmode="layer"
     id="layer1"
     transform="translate(-55.998853,-576.7753)">
    <path
       sodipodi:type="star"
       style="fill:#00adef;fill-opacity:1;stroke:none"
       id="path3795"
       sodipodi:sides="5"
       sodipodi:cx="282.85715"
       sodipodi:cy="452.36218"
       sodipodi:r1="238.53293"
       sodipodi:r2="192.97719"
       sodipodi:arg1="-1.5707963"
       sodipodi:arg2="-0.9424778"
       inkscape:flatsided="true"
       inkscape:rounded="0"
       inkscape:randomized="0"
       d="M 282.85715,213.82925 509.71545,378.65146 423.06328,645.33938 142.651,645.33937 55.998853,378.65145 z"
       inkscape:transform-center-y="-2.2591244"
       transform="matrix(0.09918086,0,0,0.09918086,50.444839,555.56753)" />
    <path
       d="m 87.972732,607.77024 c -1.093218,3.60532 -5.173533,5.29963 -9.110606,5.29963 -5.515087,0 -10.114473,-2.46557 -10.114473,-5.47836 0,-1.33562 0.752897,-2.54636 2.465573,-2.54636 2.635731,0 2.887923,3.76567 7.397935,3.76567 2.170523,0 3.551441,-0.96834 3.551441,-2.21461 0,-1.55106 -1.336837,-1.80203 -3.506152,-2.34925 l -3.595523,-0.87043 c -3.551441,-0.87776 -6.313274,-2.34927 -6.313274,-6.44794 0,-4.96663 4.932356,-6.81397 9.154687,-6.81397 4.636102,0 9.32607,1.84734 9.32607,4.64466 0,1.42499 -0.968359,2.67247 -2.554943,2.67247 -2.38599,0 -2.466783,-2.79856 -6.313275,-2.79856 -2.13381,0 -3.514728,0.58272 -3.514728,1.88285 0,1.41763 1.380918,1.75796 3.263763,2.17175 l 2.54637,0.5913 c 2.933224,0.66353 6.331639,1.8204 7.317135,4.72546 0.358969,1.3397 0.290869,2.68016 0,3.76569 z"
       style="fill:#ffffff;fill-opacity:1;fill-rule:nonzero;stroke:none"
       id="path3003"
       inkscape:connector-curvature="0"
       sodipodi:nodetypes="csssssccsssssscccc" />
  </g>
</svg>
