<?xml version="1.0" encoding="UTF-8" standalone="no"?>
<!-- Created with Inkscape (http://www.inkscape.org/) -->

<svg
   xmlns:dc="http://purl.org/dc/elements/1.1/"
   xmlns:cc="http://creativecommons.org/ns#"
   xmlns:rdf="http://www.w3.org/1999/02/22-rdf-syntax-ns#"
   xmlns:svg="http://www.w3.org/2000/svg"
   xmlns="http://www.w3.org/2000/svg"
   xmlns:sodipodi="http://sodipodi.sourceforge.net/DTD/sodipodi-0.dtd"
   xmlns:inkscape="http://www.inkscape.org/namespaces/inkscape"
   width="120"
   height="191"
   id="svg3787"
   version="1.1"
   inkscape:version="0.48.4 r9939"
   sodipodi:docname="googleplus2.svg">
  <defs
     id="defs3789" />
  <sodipodi:namedview
     id="base"
     pagecolor="#ffffff"
     bordercolor="#666666"
     borderopacity="1.0"
     inkscape:pageopacity="0.0"
     inkscape:pageshadow="2"
     inkscape:zoom="4.50877"
     inkscape:cx="56.848534"
     inkscape:cy="80.525957"
     inkscape:document-units="px"
     inkscape:current-layer="layer1"
     showgrid="false"
     fit-margin-top="0"
     fit-margin-left="0"
     fit-margin-right="0"
     fit-margin-bottom="0"
     inkscape:window-width="1024"
     inkscape:window-height="721"
     inkscape:window-x="-4"
     inkscape:window-y="-4"
     inkscape:window-maximized="1" />
  <metadata
     id="metadata3792">
    <rdf:RDF>
      <cc:Work
         rdf:about="">
        <dc:format>image/svg+xml</dc:format>
        <dc:type
           rdf:resource="http://purl.org/dc/dcmitype/StillImage" />
        <dc:title></dc:title>
      </cc:Work>
    </rdf:RDF>
  </metadata>
  <g
     inkscape:label="Layer 1"
     inkscape:groupmode="layer"
     id="layer1"
     transform="translate(-55.998853,-505.33939)">
    <path
       sodipodi:type="star"
       style="fill:#00adef;fill-opacity:1;stroke:none"
       id="path3795"
       sodipodi:sides="5"
       sodipodi:cx="282.85715"
       sodipodi:cy="452.36218"
       sodipodi:r1="238.53293"
       sodipodi:r2="192.97719"
       sodipodi:arg1="-1.5707963"
       sodipodi:arg2="-0.9424778"
       inkscape:flatsided="true"
       inkscape:rounded="0"
       inkscape:randomized="0"
       d="M 282.85715,213.82925 509.71545,378.65146 423.06328,645.33938 142.651,645.33937 55.998853,378.65145 z"
       inkscape:transform-center-y="-6.0243407"
       transform="matrix(0.26448228,0,0,0.26448228,41.188149,448.89201)" />
    <path
       d="m 141.26253,588.09924 c -2.91525,9.61418 -13.79609,14.13234 -24.29495,14.13234 -14.7069,0 -26.971928,-6.57486 -26.971928,-14.60895 0,-3.56165 2.007725,-6.79031 6.574862,-6.79031 7.028616,0 7.701126,10.04181 19.727826,10.04181 5.78806,0 9.47051,-2.58225 9.47051,-5.90563 0,-4.13618 -3.5649,-4.80543 -9.34974,-6.26468 l -9.58806,-2.32113 c -9.470511,-2.3407 -16.835398,-6.26474 -16.835398,-17.19451 0,-13.24435 13.152948,-18.1706 24.412498,-18.1706 12.36294,0 24.86952,4.92625 24.86952,12.38576 0,3.79999 -2.58229,7.1266 -6.81318,7.1266 -6.36264,0 -6.57809,-7.46284 -16.8354,-7.46284 -5.69016,0 -9.37261,1.55394 -9.37261,5.02093 0,3.78035 3.68245,4.68791 8.70337,5.79134 l 6.79032,1.57681 c 7.82193,1.7694 16.88437,4.8544 19.51236,12.60122 0.95725,3.57253 0.77565,7.14708 0,10.04184 z"
       style="fill:#ffffff;fill-opacity:1;fill-rule:nonzero;stroke:none"
       id="path3003"
       inkscape:connector-curvature="0"
       sodipodi:nodetypes="csssssccsssssscccc" />
  </g>
</svg>
