<?xml version="1.0" encoding="UTF-8" standalone="no"?>
<!-- Created with Inkscape (http://www.inkscape.org/) -->

<svg
   xmlns:dc="http://purl.org/dc/elements/1.1/"
   xmlns:cc="http://creativecommons.org/ns#"
   xmlns:rdf="http://www.w3.org/1999/02/22-rdf-syntax-ns#"
   xmlns:svg="http://www.w3.org/2000/svg"
   xmlns="http://www.w3.org/2000/svg"
   xmlns:sodipodi="http://sodipodi.sourceforge.net/DTD/sodipodi-0.dtd"
   xmlns:inkscape="http://www.inkscape.org/namespaces/inkscape"
   width="45"
   height="62.797546"
   id="svg3787"
   version="1.1"
   inkscape:version="0.48.4 r9939"
   sodipodi:docname="vk.svg">
  <defs
     id="defs3789" />
  <sodipodi:namedview
     id="base"
     pagecolor="#ffffff"
     bordercolor="#666666"
     borderopacity="1.0"
     inkscape:pageopacity="0.0"
     inkscape:pageshadow="2"
     inkscape:zoom="4.50877"
     inkscape:cx="53.346905"
     inkscape:cy="23.75941"
     inkscape:document-units="px"
     inkscape:current-layer="layer1"
     showgrid="false"
     fit-margin-top="0"
     fit-margin-left="0"
     fit-margin-right="0"
     fit-margin-bottom="20"
     inkscape:window-width="1024"
     inkscape:window-height="721"
     inkscape:window-x="-4"
     inkscape:window-y="-4"
     inkscape:window-maximized="1" />
  <metadata
     id="metadata3792">
    <rdf:RDF>
      <cc:Work
         rdf:about="">
        <dc:format>image/svg+xml</dc:format>
        <dc:type
           rdf:resource="http://purl.org/dc/dcmitype/StillImage" />
        <dc:title />
      </cc:Work>
    </rdf:RDF>
  </metadata>
  <g
     inkscape:label="Layer 1"
     inkscape:groupmode="layer"
     id="layer1"
     transform="translate(-55.998853,-576.7753)">
    <path
       sodipodi:type="star"
       style="fill:#4d71a9;fill-opacity:1;stroke:none"
       id="path3795"
       sodipodi:sides="5"
       sodipodi:cx="282.85715"
       sodipodi:cy="452.36218"
       sodipodi:r1="238.53293"
       sodipodi:r2="192.97719"
       sodipodi:arg1="-1.5707963"
       sodipodi:arg2="-0.9424778"
       inkscape:flatsided="true"
       inkscape:rounded="0"
       inkscape:randomized="0"
       d="M 282.85715,213.82925 509.71545,378.65146 423.06328,645.33938 142.651,645.33937 55.998853,378.65145 z"
       inkscape:transform-center-y="-2.2591244"
       transform="matrix(0.09918086,0,0,0.09918086,50.444839,555.56753)" />
    <path
       inkscape:connector-curvature="0"
       id="path24"
       style="fill:#ffffff;fill-opacity:1;fill-rule:evenodd;stroke:none"
       d="m 78.286565,609.90614 1.813777,0 c 0,0 0.547748,-0.0604 0.827813,-0.36171 0.257419,-0.27697 0.249195,-0.79672 0.249195,-0.79672 0,0 -0.03548,-2.43376 1.093882,-2.79215 1.113765,-0.35327 2.543614,2.35211 4.059045,3.39247 1.146034,0.78699 2.016915,0.61474 2.016915,0.61474 l 4.052521,-0.0566 c 0,0 2.119818,-0.1308 1.114616,-1.79754 -0.08228,-0.13614 -0.58557,-1.23291 -3.013238,-3.48629 -2.541255,-2.35854 -2.200597,-1.97695 0.860299,-6.05662 1.86411,-2.48452 2.60922,-4.00123 2.376379,-4.65081 -0.221835,-0.61891 -1.593015,-0.45542 -1.593015,-0.45542 l -4.562764,0.0282 c 0,0 -0.338516,-0.0461 -0.589204,0.10396 -0.245235,0.14672 -0.402637,0.48951 -0.402637,0.48951 0,0 -0.722453,1.92245 -1.685228,3.55768 -2.031765,3.44996 -2.844304,3.63258 -3.176411,3.41801 -0.772676,-0.49934 -0.579589,-2.00559 -0.579589,-3.07597 0,-3.34353 0.507139,-4.73758 -0.987566,-5.09843 -0.495919,-0.11968 -0.861259,-0.19886 -2.129749,-0.21179 -1.628171,-0.0165 -3.005869,0.005 -3.786131,0.38725 -0.519109,0.25421 -0.919609,0.82055 -0.675548,0.85314 0.301654,0.0402 0.984465,0.18432 1.346498,0.67693 0.467707,0.63633 0.451357,2.06479 0.451357,2.06479 0,0 0.268748,3.93583 -0.627461,4.4246 -0.614955,0.33531 -1.45869,-0.34921 -3.27012,-3.47924 -0.92794,-1.60328 -1.628811,-3.3757 -1.628811,-3.3757 0,0 -0.134959,-0.33115 -0.376026,-0.50842 -0.292359,-0.21479 -0.700872,-0.28285 -0.700872,-0.28285 l -4.336013,0.0284 c 0,0 -0.650776,0.0182 -0.889878,0.30122 -0.21275,0.25197 -0.01698,0.77246 -0.01698,0.77246 0,0 3.394397,7.94178 7.238198,11.94398 3.524865,3.66987 7.526738,3.42902 7.526738,3.42902 l 0,0" />
  </g>
</svg>
