<?xml version="1.0" encoding="UTF-8" standalone="no"?>
<!-- Created with Inkscape (http://www.inkscape.org/) -->

<svg
   xmlns:dc="http://purl.org/dc/elements/1.1/"
   xmlns:cc="http://creativecommons.org/ns#"
   xmlns:rdf="http://www.w3.org/1999/02/22-rdf-syntax-ns#"
   xmlns:svg="http://www.w3.org/2000/svg"
   xmlns="http://www.w3.org/2000/svg"
   xmlns:sodipodi="http://sodipodi.sourceforge.net/DTD/sodipodi-0.dtd"
   xmlns:inkscape="http://www.inkscape.org/namespaces/inkscape"
   width="120"
   height="191"
   id="svg3787"
   version="1.1"
   inkscape:version="0.48.4 r9939"
   sodipodi:docname="facebook2.svg">
  <defs
     id="defs3789" />
  <sodipodi:namedview
     id="base"
     pagecolor="#ffffff"
     bordercolor="#666666"
     borderopacity="1.0"
     inkscape:pageopacity="0.0"
     inkscape:pageshadow="2"
     inkscape:zoom="4.50877"
     inkscape:cx="53.346906"
     inkscape:cy="80.525957"
     inkscape:document-units="px"
     inkscape:current-layer="layer1"
     showgrid="false"
     fit-margin-top="0"
     fit-margin-left="0"
     fit-margin-right="0"
     fit-margin-bottom="0"
     inkscape:window-width="1024"
     inkscape:window-height="721"
     inkscape:window-x="-4"
     inkscape:window-y="-4"
     inkscape:window-maximized="1" />
  <metadata
     id="metadata3792">
    <rdf:RDF>
      <cc:Work
         rdf:about="">
        <dc:format>image/svg+xml</dc:format>
        <dc:type
           rdf:resource="http://purl.org/dc/dcmitype/StillImage" />
        <dc:title></dc:title>
      </cc:Work>
    </rdf:RDF>
  </metadata>
  <g
     inkscape:label="Layer 1"
     inkscape:groupmode="layer"
     id="layer1"
     transform="translate(-55.998853,-505.33939)">
    <path
       sodipodi:type="star"
       style="fill:#4d71a9;fill-opacity:1;stroke:none"
       id="path3795"
       sodipodi:sides="5"
       sodipodi:cx="282.85715"
       sodipodi:cy="452.36218"
       sodipodi:r1="238.53293"
       sodipodi:r2="192.97719"
       sodipodi:arg1="-1.5707963"
       sodipodi:arg2="-0.9424778"
       inkscape:flatsided="true"
       inkscape:rounded="0"
       inkscape:randomized="0"
       d="M 282.85715,213.82925 509.71545,378.65146 423.06328,645.33938 142.651,645.33937 55.998853,378.65145 z"
       inkscape:transform-center-y="-6.0243407"
       transform="matrix(0.26448228,0,0,0.26448228,41.188149,448.89201)" />
    <path
       inkscape:connector-curvature="0"
       id="path24"
       style="fill:#ffffff;fill-opacity:1;fill-rule:evenodd;stroke:none"
       d="m 115.43275,593.79496 4.83674,0 c 0,0 1.46066,-0.16099 2.2075,-0.96456 0.68645,-0.73858 0.66452,-2.12457 0.66452,-2.12457 0,0 -0.0946,-6.49003 2.91702,-7.44575 2.97004,-0.94205 6.78297,6.27231 10.82412,9.0466 3.05609,2.09865 5.37844,1.6393 5.37844,1.6393 l 10.80672,-0.15102 c 0,0 5.65285,-0.34878 2.97231,-4.79343 -0.21941,-0.36303 -1.56152,-3.28776 -8.0353,-9.29678 -6.77668,-6.28942 -5.86826,-5.27186 2.29413,-16.15098 4.97096,-6.62537 6.95792,-10.66995 6.33701,-12.40215 -0.59156,-1.65044 -4.24804,-1.21446 -4.24804,-1.21446 l -12.16737,0.0753 c 0,0 -0.90271,-0.12283 -1.57121,0.27724 -0.65396,0.39125 -1.0737,1.30536 -1.0737,1.30536 0,0 -1.92654,5.12654 -4.49394,9.48713 -5.41804,9.1999 -7.58481,9.68688 -8.47043,9.11469 -2.06047,-1.33156 -1.54557,-5.34822 -1.54557,-8.20257 0,-8.91608 1.35237,-12.63355 -2.63351,-13.59582 -1.32245,-0.31913 -2.29669,-0.53029 -5.67933,-0.56477 -4.34179,-0.0441 -8.01565,0.0135 -10.09635,1.03266 -1.38429,0.6779 -2.45229,2.18814 -1.80146,2.27505 0.80441,0.10711 2.62524,0.49153 3.59066,1.80515 1.24722,1.69688 1.20362,5.50609 1.20362,5.50609 0,0 0.71666,10.49556 -1.67323,11.79893 -1.63988,0.89417 -3.88984,-0.93122 -8.720321,-9.27797 -2.474507,-4.2754 -4.343494,-9.00186 -4.343494,-9.00186 0,0 -0.359891,-0.88306 -1.002737,-1.35579 -0.779625,-0.57276 -1.868991,-0.75427 -1.868991,-0.75427 l -11.562702,0.0756 c 0,0 -1.735402,0.0485 -2.373007,0.80327 -0.567335,0.67192 -0.04528,2.0599 -0.04528,2.0599 0,0 9.051723,21.17807 19.301861,31.85059 9.399639,9.78632 20.071299,9.14405 20.071299,9.14405 l 0,0" />
  </g>
</svg>
